<!-- Demo Pack Icons -->
<svg xmlns="http://www.w3.org/2000/svg" style="display: none;">
  
  <!-- Brain Icon -->
  <symbol id="icon-brain" viewBox="0 0 24 24">
    <path fill="currentColor" d="M12 2C6.48 2 2 6.48 2 12s4.48 10 10 10 10-4.48 10-10S17.52 2 12 2zm-1 17.93c-3.94-.49-7-3.85-7-7.93 0-.62.08-1.21.21-1.79L9 15v1c0 1.1.9 2 2 2v2.93zm6.9-2.54c-.26-.81-1-1.39-1.9-1.39h-1v-3c0-.55-.45-1-1-1H8v-2h2c.55 0 1-.45 1-1V7h2c1.1 0 2-.9 2-2v-.41c2.93 1.19 5 4.06 5 7.41 0 2.08-.8 3.97-2.1 5.39z"/>
  </symbol>
  
  <!-- Chart Icon -->
  <symbol id="icon-chart" viewBox="0 0 24 24">
    <path fill="currentColor" d="M19 3H5c-1.1 0-2 .9-2 2v14c0 1.1.9 2 2 2h14c1.1 0 2-.9 2-2V5c0-1.1-.9-2-2-2zM9 17H7v-7h2v7zm4 0h-2V7h2v10zm4 0h-2v-4h2v4z"/>
  </symbol>
  
  <!-- Check Icon -->
  <symbol id="icon-check" viewBox="0 0 24 24">
    <path fill="currentColor" d="M9 16.17L4.83 12l-1.42 1.41L9 19 21 7l-1.41-1.41z"/>
  </symbol>
  
  <!-- X Icon -->
  <symbol id="icon-x" viewBox="0 0 24 24">
    <path fill="currentColor" d="M19 6.41L17.59 5 12 10.59 6.41 5 5 6.41 10.59 12 5 17.59 6.41 19 12 13.41 17.59 19 19 17.59 13.41 12z"/>
  </symbol>
  
  <!-- Warning Icon -->
  <symbol id="icon-warning" viewBox="0 0 24 24">
    <path fill="currentColor" d="M1 21h22L12 2 1 21zm12-3h-2v-2h2v2zm0-4h-2v-4h2v4z"/>
  </symbol>
  
  <!-- Info Icon -->
  <symbol id="icon-info" viewBox="0 0 24 24">
    <path fill="currentColor" d="M12 2C6.48 2 2 6.48 2 12s4.48 10 10 10 10-4.48 10-10S17.52 2 12 2zm1 15h-2v-6h2v6zm0-8h-2V7h2v2z"/>
  </symbol>
  
  <!-- Play Icon -->
  <symbol id="icon-play" viewBox="0 0 24 24">
    <path fill="currentColor" d="M8 5v14l11-7z"/>
  </symbol>
  
  <!-- Settings Icon -->
  <symbol id="icon-settings" viewBox="0 0 24 24">
    <path fill="currentColor" d="M19.14,12.94c0.04-0.3,0.06-0.61,0.06-0.94c0-0.32-0.02-0.64-0.07-0.94l2.03-1.58c0.18-0.14,0.23-0.41,0.12-0.61 l-1.92-3.32c-0.12-0.22-0.37-0.29-0.59-0.22l-2.39,0.96c-0.5-0.38-1.03-0.7-1.62-0.94L14.4,2.81c-0.04-0.24-0.24-0.41-0.48-0.41 h-3.84c-0.24,0-0.43,0.17-0.47,0.41L9.25,5.35C8.66,5.59,8.12,5.92,7.63,6.29L5.24,5.33c-0.22-0.08-0.47,0-0.59,0.22L2.74,8.87 C2.62,9.08,2.66,9.34,2.86,9.48l2.03,1.58C4.84,11.36,4.82,11.69,4.82,12s0.02,0.64,0.07,0.94l-2.03,1.58 c-0.18,0.14-0.23,0.41-0.12,0.61l1.92,3.32c0.12,0.22,0.37,0.29,0.59,0.22l2.39-0.96c0.5,0.38,1.03,0.7,1.62,0.94l0.36,2.54 c0.05,0.24,0.24,0.41,0.48,0.41h3.84c0.24,0,0.44-0.17,0.47-0.41l0.36-2.54c0.59-0.24,1.13-0.56,1.62-0.94l2.39,0.96 c0.22,0.08,0.47,0,0.59-0.22l1.92-3.32c0.12-0.22,0.07-0.47-0.12-0.61L19.14,12.94z M12,15.6c-1.98,0-3.6-1.62-3.6-3.6 s1.62-3.6,3.6-3.6s3.6,1.62,3.6,3.6S13.98,15.6,12,15.6z"/>
  </symbol>
  
  <!-- Download Icon -->
  <symbol id="icon-download" viewBox="0 0 24 24">
    <path fill="currentColor" d="M19 9h-4V3H9v6H5l7 7 7-7zM5 18v2h14v-2H5z"/>
  </symbol>
  
  <!-- Clock Icon -->
  <symbol id="icon-clock" viewBox="0 0 24 24">
    <path fill="currentColor" d="M11.99 2C6.47 2 2 6.48 2 12s4.47 10 9.99 10C17.52 22 22 17.52 22 12S17.52 2 11.99 2zM12 20c-4.42 0-8-3.58-8-8s3.58-8 8-8 8 3.58 8 8-3.58 8-8 8z"/>
    <path fill="currentColor" d="M12.5 7H11v6l5.25 3.15.75-1.23-4.5-2.67z"/>
  </symbol>
  
  <!-- Target Icon -->
  <symbol id="icon-target" viewBox="0 0 24 24">
    <path fill="currentColor" d="M12,2A10,10 0 0,0 2,12A10,10 0 0,0 12,22A10,10 0 0,0 22,12A10,10 0 0,0 12,2M12,4A8,8 0 0,1 20,12A8,8 0 0,1 12,20A8,8 0 0,1 4,12A8,8 0 0,1 12,4M12,6A6,6 0 0,0 6,12A6,6 0 0,0 12,18A6,6 0 0,0 18,12A6,6 0 0,0 12,6M12,8A4,4 0 0,1 16,12A4,4 0 0,1 12,16A4,4 0 0,1 8,12A4,4 0 0,1 12,8M12,10A2,2 0 0,0 10,12A2,2 0 0,0 12,14A2,2 0 0,0 14,12A2,2 0 0,0 12,10Z"/>
  </symbol>
  
  <!-- Speed Icon -->
  <symbol id="icon-speed" viewBox="0 0 24 24">
    <path fill="currentColor" d="M20.38,8.57L19.11,7.3C17.9,6.09 16.22,6.09 15,7.3L13.62,8.57C12.41,9.78 12.41,11.46 13.62,12.67L14.89,13.94C16.1,15.15 17.78,15.15 19,13.94L20.38,12.67C21.59,11.46 21.59,9.78 20.38,8.57M15.83,10.92L14.17,12.58C13.77,12.98 13.77,13.61 14.17,14.01C14.57,14.41 15.2,14.41 15.6,14.01L17.26,12.35C17.66,11.95 17.66,11.32 17.26,10.92C16.86,10.52 16.23,10.52 15.83,10.92M12.93,4.26L6.5,10.68C5.91,11.27 5.91,12.22 6.5,12.81L12.93,19.24C13.52,19.83 14.47,19.83 15.06,19.24L21.49,12.81C22.08,12.22 22.08,11.27 21.49,10.68L15.06,4.26C14.47,3.67 13.52,3.67 12.93,4.26Z"/>
  </symbol>
  
  <!-- Memory Icon -->
  <symbol id="icon-memory" viewBox="0 0 24 24">
    <path fill="currentColor" d="M15,9H9V7H15M15,13H9V11H15M15,17H9V15H15M4,5H20A1,1 0 0,1 21,6V18A1,1 0 0,1 20,19H4A1,1 0 0,1 3,18V6A1,1 0 0,1 4,5M5,7V17H19V7H5Z"/>
  </symbol>
  
</svg>
